<svg width="726" height="467" viewBox="0 0 726 467" fill="none" xmlns="http://www.w3.org/2000/svg">
<path opacity="0.07" fill-rule="evenodd" clip-rule="evenodd" d="M21.1075 441.942C9.95134 428.51 12.083 409.122 25.8929 398.418L376.032 127.021C380.947 123.212 386.933 120.865 393.257 120.267C416.681 118.053 435.027 139.52 427.993 160.915C426.094 166.691 422.465 171.796 417.55 175.605L67.411 447.002C53.3241 457.921 32.4874 455.644 21.1075 441.942Z" fill="url(#paint0_linear)"/>
<path d="M172.234 271.675H175.762C176.266 271.675 176.392 271.549 176.392 271.045V270.919C176.392 270.415 176.266 270.289 175.762 270.289H172.234V268.497C172.234 268.119 172.402 267.965 172.78 267.965H176.322C176.826 267.965 176.952 267.839 176.952 267.335V267.209C176.952 266.705 176.826 266.579 176.322 266.579H172.36C171.24 266.579 170.764 267.055 170.764 268.175V274.083C170.764 275.203 171.24 275.679 172.36 275.679H176.322C176.826 275.679 176.952 275.553 176.952 275.049V274.923C176.952 274.419 176.826 274.293 176.322 274.293H172.78C172.402 274.293 172.234 274.139 172.234 273.761V271.675ZM183.848 270.877C183.848 269.127 182.574 268.581 180.684 268.581C179.928 268.581 179.606 268.637 179.284 268.693C178.892 268.763 178.78 268.875 178.78 269.295V269.491C178.78 269.911 178.878 270.023 179.298 269.939C179.578 269.883 180.082 269.813 180.768 269.813C181.762 269.813 182.42 270.009 182.42 270.877V271.563H180.88C179.13 271.563 178.024 272.109 178.024 273.677C178.024 275.161 179.046 275.833 180.866 275.833C182.938 275.833 183.848 275.133 183.848 273.593V270.877ZM182.42 273.523C182.42 274.475 181.748 274.615 180.838 274.615C180.124 274.615 179.466 274.475 179.466 273.649C179.466 272.935 179.928 272.655 180.88 272.655H182.42V273.523ZM185.027 274.909C185.027 275.385 185.125 275.469 185.587 275.595C185.951 275.693 186.553 275.833 187.505 275.833C189.493 275.833 190.333 275.217 190.333 273.873C190.333 272.753 189.773 272.291 188.835 271.899L187.211 271.199C186.735 270.989 186.553 270.821 186.553 270.485C186.553 270.079 186.847 269.911 187.785 269.911C188.667 269.911 189.101 270.037 189.451 270.135C189.913 270.261 190.025 270.135 190.025 269.659V269.491C190.025 269.015 189.913 268.931 189.437 268.791C189.031 268.679 188.611 268.581 187.813 268.581C185.937 268.581 185.139 269.197 185.139 270.485C185.139 271.577 185.671 272.011 186.525 272.389L188.037 273.061C188.723 273.369 188.933 273.537 188.933 273.901C188.933 274.363 188.555 274.503 187.631 274.503C186.595 274.503 185.965 274.335 185.587 274.237C185.125 274.125 185.027 274.251 185.027 274.727V274.909ZM192.565 269.365C192.439 268.861 192.285 268.735 191.767 268.735H191.585C191.067 268.735 190.969 268.861 191.095 269.365L192.271 273.999C192.537 275.063 192.831 275.791 193.965 275.791C194.203 275.791 194.455 275.763 194.609 275.693C194.301 276.771 193.769 277.359 192.803 277.499C192.453 277.555 192.313 277.639 192.411 278.059L192.453 278.241C192.551 278.661 192.719 278.801 193.083 278.759C194.707 278.591 195.617 277.583 196.079 275.679L197.591 269.365C197.717 268.861 197.619 268.735 197.101 268.735H196.919C196.401 268.735 196.247 268.861 196.135 269.365L195.085 273.873C194.945 274.461 194.735 274.559 194.427 274.559C194.007 274.559 193.811 274.461 193.671 273.873L192.565 269.365ZM201.725 269.589C201.725 269.981 201.823 270.079 202.215 270.079H202.943V273.243C202.943 275.189 204.007 275.819 205.463 275.819C205.995 275.819 206.387 275.749 206.597 275.707C207.059 275.609 207.171 275.483 207.171 275.007V274.839C207.171 274.363 207.059 274.251 206.597 274.349C206.429 274.391 205.967 274.475 205.463 274.475C204.805 274.475 204.371 274.181 204.371 273.257V270.079H206.331C206.807 270.079 206.919 269.967 206.919 269.491V269.323C206.919 268.847 206.807 268.735 206.331 268.735H204.371V267.419C204.371 267.013 204.273 266.915 203.867 266.915H203.685C203.279 266.915 203.167 267.013 203.111 267.419L202.943 268.735L202.201 268.875C201.823 268.945 201.725 269.057 201.725 269.449V269.589ZM213.035 272.809C213.035 273.901 212.713 274.475 211.285 274.475C209.843 274.475 209.507 273.901 209.507 272.809V271.605C209.507 270.513 209.843 269.925 211.285 269.925C212.713 269.925 213.035 270.513 213.035 271.605V272.809ZM211.285 275.833C213.469 275.833 214.477 274.713 214.477 272.809V271.605C214.477 269.645 213.553 268.581 211.285 268.581C209.087 268.581 208.065 269.687 208.065 271.605V272.809C208.065 274.769 209.003 275.833 211.285 275.833ZM220.693 269.365C220.693 268.861 220.567 268.735 220.063 268.735H219.881C219.377 268.735 219.251 268.861 219.251 269.365V273.103C219.251 274.825 220.203 275.833 222.303 275.833C224.487 275.833 225.341 274.853 225.341 273.103V269.365C225.341 268.861 225.215 268.735 224.711 268.735H224.529C224.025 268.735 223.899 268.861 223.899 269.365V273.103C223.899 273.985 223.633 274.475 222.303 274.475C220.987 274.475 220.693 273.985 220.693 273.103V269.365ZM226.617 274.909C226.617 275.385 226.715 275.469 227.177 275.595C227.541 275.693 228.143 275.833 229.095 275.833C231.083 275.833 231.923 275.217 231.923 273.873C231.923 272.753 231.363 272.291 230.425 271.899L228.801 271.199C228.325 270.989 228.143 270.821 228.143 270.485C228.143 270.079 228.437 269.911 229.375 269.911C230.257 269.911 230.691 270.037 231.041 270.135C231.503 270.261 231.615 270.135 231.615 269.659V269.491C231.615 269.015 231.503 268.931 231.027 268.791C230.621 268.679 230.201 268.581 229.403 268.581C227.527 268.581 226.729 269.197 226.729 270.485C226.729 271.577 227.261 272.011 228.115 272.389L229.627 273.061C230.313 273.369 230.523 273.537 230.523 273.901C230.523 274.363 230.145 274.503 229.221 274.503C228.185 274.503 227.555 274.335 227.177 274.237C226.715 274.125 226.617 274.251 226.617 274.727V274.909ZM239.229 271.479C239.229 269.561 238.193 268.581 236.261 268.581C233.923 268.581 233.153 269.869 233.153 271.619V272.837C233.153 274.979 234.273 275.833 236.597 275.833C237.409 275.833 237.997 275.721 238.417 275.609C238.879 275.483 238.991 275.399 238.991 274.923V274.741C238.991 274.265 238.879 274.139 238.417 274.251C237.997 274.349 237.339 274.475 236.597 274.475C235.183 274.475 234.595 274.069 234.595 273.047V272.739H238.487C239.005 272.739 239.145 272.613 239.201 272.095C239.215 271.941 239.229 271.773 239.229 271.479ZM234.595 271.213C234.595 270.261 235.169 269.827 236.219 269.827C237.269 269.827 237.871 270.261 237.871 271.213V271.563H234.595V271.213Z" fill="#29CBC1"/>
<path d="M547.849 271.773H551.181C551.685 271.773 551.811 271.647 551.811 271.143V271.017C551.811 270.513 551.685 270.387 551.181 270.387H547.849V268.497C547.849 268.119 548.017 267.965 548.395 267.965H551.741C552.245 267.965 552.371 267.839 552.371 267.335V267.209C552.371 266.705 552.245 266.579 551.741 266.579H547.975C546.855 266.579 546.379 267.055 546.379 268.175V275.035C546.379 275.553 546.505 275.679 547.023 275.679H547.205C547.723 275.679 547.849 275.553 547.849 275.035V271.773ZM554.925 271.157C554.925 270.359 555.149 269.925 556.129 269.925C556.227 269.925 556.297 269.925 556.409 269.939C556.885 270.009 556.997 269.925 556.997 269.449V269.253C556.997 268.777 556.885 268.651 556.409 268.595C556.297 268.581 556.227 268.581 556.129 268.581C554.323 268.581 553.483 269.491 553.483 271.059V275.049C553.483 275.553 553.609 275.679 554.113 275.679H554.295C554.799 275.679 554.925 275.553 554.925 275.049V271.157ZM558.176 275.049C558.176 275.553 558.302 275.679 558.806 275.679H558.988C559.492 275.679 559.618 275.553 559.618 275.049V269.365C559.618 268.861 559.492 268.735 558.988 268.735H558.806C558.302 268.735 558.176 268.861 558.176 269.365V275.049ZM558.008 266.593C558.008 267.083 558.414 267.475 558.904 267.475C559.394 267.475 559.786 267.083 559.786 266.593C559.786 266.117 559.394 265.711 558.904 265.711C558.414 265.711 558.008 266.103 558.008 266.593ZM567.225 271.479C567.225 269.561 566.189 268.581 564.257 268.581C561.919 268.581 561.149 269.869 561.149 271.619V272.837C561.149 274.979 562.269 275.833 564.593 275.833C565.405 275.833 565.993 275.721 566.413 275.609C566.875 275.483 566.987 275.399 566.987 274.923V274.741C566.987 274.265 566.875 274.139 566.413 274.251C565.993 274.349 565.335 274.475 564.593 274.475C563.179 274.475 562.591 274.069 562.591 273.047V272.739H566.483C567.001 272.739 567.141 272.613 567.197 272.095C567.211 271.941 567.225 271.773 567.225 271.479ZM562.591 271.213C562.591 270.261 563.165 269.827 564.215 269.827C565.265 269.827 565.867 270.261 565.867 271.213V271.563H562.591V271.213ZM570.046 271.297C570.046 270.415 570.34 269.925 571.656 269.925C572.986 269.925 573.252 270.415 573.252 271.297V275.049C573.252 275.553 573.378 275.679 573.882 275.679H574.064C574.568 275.679 574.694 275.553 574.694 275.049V271.297C574.694 269.547 573.84 268.581 571.656 268.581C569.556 268.581 568.604 269.575 568.604 271.297V275.049C568.604 275.553 568.73 275.679 569.234 275.679H569.416C569.92 275.679 570.046 275.553 570.046 275.049V271.297ZM582.463 266.509C582.463 266.005 582.337 265.879 581.833 265.879H581.665C581.161 265.879 581.035 266.005 581.035 266.509V269.491C580.685 268.931 580.055 268.581 578.991 268.581C576.961 268.581 576.065 269.715 576.065 271.633V272.837C576.065 274.881 577.143 275.833 579.271 275.833C581.231 275.833 582.463 274.881 582.463 272.837V266.509ZM577.507 271.605C577.507 270.513 577.829 269.925 579.257 269.925C580.699 269.925 581.035 270.513 581.035 271.605V272.809C581.035 273.901 580.699 274.475 579.257 274.475C577.801 274.475 577.507 273.901 577.507 272.809V271.605ZM583.944 273.719C583.944 275.217 584.77 275.791 585.806 275.791C585.89 275.791 585.918 275.791 586.002 275.777C586.464 275.693 586.576 275.609 586.576 275.133V274.993C586.576 274.517 586.506 274.433 586.044 274.433C585.624 274.433 585.386 274.223 585.386 273.439V266.509C585.386 266.005 585.26 265.879 584.756 265.879H584.574C584.07 265.879 583.944 266.005 583.944 266.509V273.719ZM588.21 269.365C588.084 268.861 587.93 268.735 587.412 268.735H587.23C586.712 268.735 586.614 268.861 586.74 269.365L587.916 273.999C588.182 275.063 588.476 275.791 589.61 275.791C589.848 275.791 590.1 275.763 590.254 275.693C589.946 276.771 589.414 277.359 588.448 277.499C588.098 277.555 587.958 277.639 588.056 278.059L588.098 278.241C588.196 278.661 588.364 278.801 588.728 278.759C590.352 278.591 591.262 277.583 591.724 275.679L593.236 269.365C593.362 268.861 593.264 268.735 592.746 268.735H592.564C592.046 268.735 591.892 268.861 591.78 269.365L590.73 273.873C590.59 274.461 590.38 274.559 590.072 274.559C589.652 274.559 589.456 274.461 589.316 273.873L588.21 269.365ZM603.852 268.805C603.39 267.125 603.054 266.453 601.612 266.453C600.17 266.453 599.82 267.125 599.358 268.805L597.636 275.063C597.496 275.553 597.594 275.679 598.112 275.679H598.308C598.826 275.679 598.98 275.553 599.12 275.063L599.638 273.159H603.572L604.09 275.063C604.23 275.553 604.384 275.679 604.902 275.679H605.098C605.616 275.679 605.714 275.553 605.574 275.063L603.852 268.805ZM600.814 268.777C601.024 267.979 601.15 267.769 601.612 267.769C602.074 267.769 602.186 267.979 602.396 268.777L603.222 271.829H599.988L600.814 268.777ZM606.831 277.849C606.831 278.353 606.957 278.479 607.461 278.479H607.629C608.133 278.479 608.259 278.353 608.259 277.849V274.923C608.609 275.483 609.239 275.833 610.317 275.833C612.333 275.833 613.229 274.685 613.229 272.781V271.563C613.229 269.519 612.165 268.581 610.023 268.581C608.077 268.581 606.831 269.519 606.831 271.563V277.849ZM611.787 272.809C611.787 273.901 611.479 274.475 610.037 274.475C608.595 274.475 608.259 273.901 608.259 272.809V271.605C608.259 270.513 608.595 269.925 610.037 269.925C611.493 269.925 611.787 270.513 611.787 271.605V272.809ZM614.638 277.849C614.638 278.353 614.764 278.479 615.268 278.479H615.436C615.94 278.479 616.066 278.353 616.066 277.849V274.923C616.416 275.483 617.046 275.833 618.124 275.833C620.14 275.833 621.036 274.685 621.036 272.781V271.563C621.036 269.519 619.972 268.581 617.83 268.581C615.884 268.581 614.638 269.519 614.638 271.563V277.849ZM619.594 272.809C619.594 273.901 619.286 274.475 617.844 274.475C616.402 274.475 616.066 273.901 616.066 272.809V271.605C616.066 270.513 616.402 269.925 617.844 269.925C619.3 269.925 619.594 270.513 619.594 271.605V272.809Z" fill="#29CBC1"/>
<g filter="url(#filter0_d)">
<path d="M410 168.239V183.607L371.246 157.493L400.754 137.599V153.361L394.066 157.837L410 168.239Z" fill="#29CBC1"/>
</g>
<g filter="url(#filter1_d)">
<path d="M365.516 153.853V138.509L404.245 164.624L374.737 184.075V168.755L381.426 164.255L365.516 153.853Z" fill="#29CBC1"/>
</g>
<path d="M50.7035 154.369C50.7035 154.873 50.8295 154.999 51.3335 154.999H53.5175V162.069C53.5175 162.587 53.6435 162.713 54.1615 162.713H54.3575C54.8755 162.713 55.0015 162.587 55.0015 162.069V154.999H57.1715C57.6755 154.999 57.8015 154.873 57.8015 154.369V154.243C57.8015 153.739 57.6755 153.613 57.1715 153.613H51.3335C50.8295 153.613 50.7035 153.739 50.7035 154.243V154.369ZM59.4959 158.191C59.4959 157.393 59.7199 156.959 60.6999 156.959C60.7979 156.959 60.8679 156.959 60.9799 156.973C61.4559 157.043 61.5679 156.959 61.5679 156.483V156.287C61.5679 155.811 61.4559 155.685 60.9799 155.629C60.8679 155.615 60.7979 155.615 60.6999 155.615C58.8939 155.615 58.0539 156.525 58.0539 158.093V162.083C58.0539 162.587 58.1799 162.713 58.6839 162.713H58.8659C59.3699 162.713 59.4959 162.587 59.4959 162.083V158.191ZM67.7391 157.911C67.7391 156.161 66.4651 155.615 64.5751 155.615C63.8191 155.615 63.4971 155.671 63.1751 155.727C62.7831 155.797 62.6711 155.909 62.6711 156.329V156.525C62.6711 156.945 62.7691 157.057 63.1891 156.973C63.4691 156.917 63.9731 156.847 64.6591 156.847C65.6531 156.847 66.3111 157.043 66.3111 157.911V158.597H64.7711C63.0211 158.597 61.9151 159.143 61.9151 160.711C61.9151 162.195 62.9371 162.867 64.7571 162.867C66.8291 162.867 67.7391 162.167 67.7391 160.627V157.911ZM66.3111 160.557C66.3111 161.509 65.6391 161.649 64.7291 161.649C64.0151 161.649 63.3571 161.509 63.3571 160.683C63.3571 159.969 63.8191 159.689 64.7711 159.689H66.3111V160.557ZM70.5564 158.331C70.5564 157.449 70.8504 156.959 72.1664 156.959C73.4964 156.959 73.7624 157.449 73.7624 158.331V162.083C73.7624 162.587 73.8884 162.713 74.3924 162.713H74.5744C75.0784 162.713 75.2044 162.587 75.2044 162.083V158.331C75.2044 156.581 74.3504 155.615 72.1664 155.615C70.0664 155.615 69.1144 156.609 69.1144 158.331V162.083C69.1144 162.587 69.2404 162.713 69.7444 162.713H69.9264C70.4304 162.713 70.5564 162.587 70.5564 162.083V158.331ZM76.52 161.943C76.52 162.419 76.618 162.503 77.08 162.629C77.444 162.727 78.046 162.867 78.998 162.867C80.986 162.867 81.826 162.251 81.826 160.907C81.826 159.787 81.266 159.325 80.328 158.933L78.704 158.233C78.228 158.023 78.046 157.855 78.046 157.519C78.046 157.113 78.34 156.945 79.278 156.945C80.16 156.945 80.594 157.071 80.944 157.169C81.406 157.295 81.518 157.169 81.518 156.693V156.525C81.518 156.049 81.406 155.965 80.93 155.825C80.524 155.713 80.104 155.615 79.306 155.615C77.43 155.615 76.632 156.231 76.632 157.519C76.632 158.611 77.164 159.045 78.018 159.423L79.53 160.095C80.216 160.403 80.426 160.571 80.426 160.935C80.426 161.397 80.048 161.537 79.124 161.537C78.088 161.537 77.458 161.369 77.08 161.271C76.618 161.159 76.52 161.285 76.52 161.761V161.943ZM88.6844 157.911C88.6844 156.161 87.4104 155.615 85.5204 155.615C84.7644 155.615 84.4424 155.671 84.1204 155.727C83.7284 155.797 83.6164 155.909 83.6164 156.329V156.525C83.6164 156.945 83.7144 157.057 84.1344 156.973C84.4144 156.917 84.9184 156.847 85.6044 156.847C86.5984 156.847 87.2564 157.043 87.2564 157.911V158.597H85.7164C83.9664 158.597 82.8604 159.143 82.8604 160.711C82.8604 162.195 83.8824 162.867 85.7024 162.867C87.7744 162.867 88.6844 162.167 88.6844 160.627V157.911ZM87.2564 160.557C87.2564 161.509 86.5844 161.649 85.6744 161.649C84.9604 161.649 84.3024 161.509 84.3024 160.683C84.3024 159.969 84.7644 159.689 85.7164 159.689H87.2564V160.557ZM89.9197 159.927C89.9197 161.873 90.9417 162.867 93.2097 162.867C93.7557 162.867 94.1057 162.783 94.3437 162.727C94.8057 162.615 94.9317 162.503 94.9317 162.027V161.859C94.9317 161.383 94.8197 161.299 94.3577 161.383C94.1337 161.425 93.8117 161.509 93.2797 161.509C91.9357 161.509 91.3617 161.117 91.3617 159.885V158.569C91.3617 157.435 91.8097 156.959 93.1817 156.959C93.6297 156.959 94.0497 157.043 94.2177 157.099C94.6797 157.239 94.8057 157.113 94.8057 156.637V156.455C94.8057 155.979 94.7077 155.867 94.2457 155.755C93.9657 155.685 93.6717 155.615 93.1537 155.615C90.9417 155.615 89.9197 156.791 89.9197 158.555V159.927ZM95.406 156.623C95.406 157.015 95.504 157.113 95.896 157.113H96.624V160.277C96.624 162.223 97.688 162.853 99.144 162.853C99.676 162.853 100.068 162.783 100.278 162.741C100.74 162.643 100.852 162.517 100.852 162.041V161.873C100.852 161.397 100.74 161.285 100.278 161.383C100.11 161.425 99.648 161.509 99.144 161.509C98.486 161.509 98.052 161.215 98.052 160.291V157.113H100.012C100.488 157.113 100.6 157.001 100.6 156.525V156.357C100.6 155.881 100.488 155.769 100.012 155.769H98.052V154.453C98.052 154.047 97.954 153.949 97.548 153.949H97.366C96.96 153.949 96.848 154.047 96.792 154.453L96.624 155.769L95.882 155.909C95.504 155.979 95.406 156.091 95.406 156.483V156.623ZM102.04 162.083C102.04 162.587 102.166 162.713 102.67 162.713H102.852C103.356 162.713 103.482 162.587 103.482 162.083V156.399C103.482 155.895 103.356 155.769 102.852 155.769H102.67C102.166 155.769 102.04 155.895 102.04 156.399V162.083ZM101.872 153.627C101.872 154.117 102.278 154.509 102.768 154.509C103.258 154.509 103.65 154.117 103.65 153.627C103.65 153.151 103.258 152.745 102.768 152.745C102.278 152.745 101.872 153.137 101.872 153.627ZM109.983 159.843C109.983 160.935 109.661 161.509 108.233 161.509C106.791 161.509 106.455 160.935 106.455 159.843V158.639C106.455 157.547 106.791 156.959 108.233 156.959C109.661 156.959 109.983 157.547 109.983 158.639V159.843ZM108.233 162.867C110.417 162.867 111.425 161.747 111.425 159.843V158.639C111.425 156.679 110.501 155.615 108.233 155.615C106.035 155.615 105.013 156.721 105.013 158.639V159.843C105.013 161.803 105.951 162.867 108.233 162.867ZM114.238 158.331C114.238 157.449 114.532 156.959 115.848 156.959C117.178 156.959 117.444 157.449 117.444 158.331V162.083C117.444 162.587 117.57 162.713 118.074 162.713H118.256C118.76 162.713 118.886 162.587 118.886 162.083V158.331C118.886 156.581 118.032 155.615 115.848 155.615C113.748 155.615 112.796 156.609 112.796 158.331V162.083C112.796 162.587 112.922 162.713 113.426 162.713H113.608C114.112 162.713 114.238 162.587 114.238 162.083V158.331Z" fill="white"/>
<path d="M662.748 153.613C661.628 153.613 661.152 154.089 661.152 155.209V162.069C661.152 162.587 661.278 162.713 661.796 162.713H661.978C662.496 162.713 662.622 162.587 662.622 162.069V159.549H664.918C667.172 159.549 667.984 158.387 667.984 156.581C667.984 154.775 667.186 153.613 664.918 153.613H662.748ZM664.918 154.999C666.15 154.999 666.514 155.531 666.514 156.581C666.514 157.645 666.164 158.163 664.918 158.163H662.622V155.531C662.622 155.153 662.79 154.999 663.168 154.999H664.918ZM670.681 158.191C670.681 157.393 670.905 156.959 671.885 156.959C671.983 156.959 672.053 156.959 672.165 156.973C672.641 157.043 672.753 156.959 672.753 156.483V156.287C672.753 155.811 672.641 155.685 672.165 155.629C672.053 155.615 671.983 155.615 671.885 155.615C670.079 155.615 669.239 156.525 669.239 158.093V162.083C669.239 162.587 669.365 162.713 669.869 162.713H670.051C670.555 162.713 670.681 162.587 670.681 162.083V158.191ZM673.932 162.083C673.932 162.587 674.058 162.713 674.562 162.713H674.744C675.248 162.713 675.374 162.587 675.374 162.083V156.399C675.374 155.895 675.248 155.769 674.744 155.769H674.562C674.058 155.769 673.932 155.895 673.932 156.399V162.083ZM673.764 153.627C673.764 154.117 674.17 154.509 674.66 154.509C675.15 154.509 675.542 154.117 675.542 153.627C675.542 153.151 675.15 152.745 674.66 152.745C674.17 152.745 673.764 153.137 673.764 153.627ZM676.906 159.927C676.906 161.873 677.928 162.867 680.196 162.867C680.742 162.867 681.092 162.783 681.33 162.727C681.792 162.615 681.918 162.503 681.918 162.027V161.859C681.918 161.383 681.806 161.299 681.344 161.383C681.12 161.425 680.798 161.509 680.266 161.509C678.922 161.509 678.348 161.117 678.348 159.885V158.569C678.348 157.435 678.796 156.959 680.168 156.959C680.616 156.959 681.036 157.043 681.204 157.099C681.666 157.239 681.792 157.113 681.792 156.637V156.455C681.792 155.979 681.694 155.867 681.232 155.755C680.952 155.685 680.658 155.615 680.14 155.615C677.928 155.615 676.906 156.791 676.906 158.555V159.927ZM688.697 158.513C688.697 156.595 687.661 155.615 685.729 155.615C683.391 155.615 682.621 156.903 682.621 158.653V159.871C682.621 162.013 683.741 162.867 686.065 162.867C686.877 162.867 687.465 162.755 687.885 162.643C688.347 162.517 688.459 162.433 688.459 161.957V161.775C688.459 161.299 688.347 161.173 687.885 161.285C687.465 161.383 686.807 161.509 686.065 161.509C684.651 161.509 684.063 161.103 684.063 160.081V159.773H687.955C688.473 159.773 688.613 159.647 688.669 159.129C688.683 158.975 688.697 158.807 688.697 158.513ZM684.063 158.247C684.063 157.295 684.637 156.861 685.687 156.861C686.737 156.861 687.339 157.295 687.339 158.247V158.597H684.063V158.247ZM694.963 158.191C694.963 157.393 695.187 156.959 696.167 156.959C696.265 156.959 696.335 156.959 696.447 156.973C696.923 157.043 697.035 156.959 697.035 156.483V156.287C697.035 155.811 696.923 155.685 696.447 155.629C696.335 155.615 696.265 155.615 696.167 155.615C694.361 155.615 693.521 156.525 693.521 158.093V162.083C693.521 162.587 693.647 162.713 694.151 162.713H694.333C694.837 162.713 694.963 162.587 694.963 162.083V158.191ZM698.214 162.083C698.214 162.587 698.34 162.713 698.844 162.713H699.026C699.53 162.713 699.656 162.587 699.656 162.083V156.399C699.656 155.895 699.53 155.769 699.026 155.769H698.844C698.34 155.769 698.214 155.895 698.214 156.399V162.083ZM698.046 153.627C698.046 154.117 698.452 154.509 698.942 154.509C699.432 154.509 699.824 154.117 699.824 153.627C699.824 153.151 699.432 152.745 698.942 152.745C698.452 152.745 698.046 153.137 698.046 153.627ZM701.131 161.943C701.131 162.419 701.229 162.503 701.691 162.629C702.055 162.727 702.657 162.867 703.609 162.867C705.597 162.867 706.437 162.251 706.437 160.907C706.437 159.787 705.877 159.325 704.939 158.933L703.315 158.233C702.839 158.023 702.657 157.855 702.657 157.519C702.657 157.113 702.951 156.945 703.889 156.945C704.771 156.945 705.205 157.071 705.555 157.169C706.017 157.295 706.129 157.169 706.129 156.693V156.525C706.129 156.049 706.017 155.965 705.541 155.825C705.135 155.713 704.715 155.615 703.917 155.615C702.041 155.615 701.243 156.231 701.243 157.519C701.243 158.611 701.775 159.045 702.629 159.423L704.141 160.095C704.827 160.403 705.037 160.571 705.037 160.935C705.037 161.397 704.659 161.537 703.735 161.537C702.699 161.537 702.069 161.369 701.691 161.271C701.229 161.159 701.131 161.285 701.131 161.761V161.943ZM707.962 162.083C707.962 162.587 708.088 162.713 708.592 162.713H708.774C709.278 162.713 709.404 162.587 709.404 162.083V156.399C709.404 155.895 709.278 155.769 708.774 155.769H708.592C708.088 155.769 707.962 155.895 707.962 156.399V162.083ZM707.794 153.627C707.794 154.117 708.2 154.509 708.69 154.509C709.18 154.509 709.572 154.117 709.572 153.627C709.572 153.151 709.18 152.745 708.69 152.745C708.2 152.745 707.794 153.137 707.794 153.627ZM712.517 158.331C712.517 157.449 712.811 156.959 714.127 156.959C715.457 156.959 715.723 157.449 715.723 158.331V162.083C715.723 162.587 715.849 162.713 716.353 162.713H716.535C717.039 162.713 717.165 162.587 717.165 162.083V158.331C717.165 156.581 716.311 155.615 714.127 155.615C712.027 155.615 711.075 156.609 711.075 158.331V162.083C711.075 162.587 711.201 162.713 711.705 162.713H711.887C712.391 162.713 712.517 162.587 712.517 162.083V158.331ZM724.599 158.219V158.093C724.599 157.491 724.445 157.043 724.067 156.665L724.641 156.049C724.935 155.741 724.935 155.587 724.627 155.293L724.501 155.167C724.193 154.873 724.039 154.873 723.717 155.153L722.919 155.839C722.471 155.671 722.079 155.615 721.589 155.615C719.671 155.615 718.537 156.511 718.537 158.093V158.219C718.537 159.213 718.915 159.899 719.671 160.263C718.985 160.431 718.565 160.795 718.565 161.467C718.565 161.915 718.719 162.223 719.097 162.447C718.719 162.671 718.355 163.077 718.355 163.861C718.355 165.093 718.999 165.765 721.589 165.765C724.025 165.765 724.781 165.191 724.781 163.595C724.781 162.125 724.053 161.593 721.589 161.593C720.259 161.593 719.993 161.509 719.993 161.187C719.993 160.809 720.259 160.739 721.589 160.739C723.731 160.739 724.599 159.801 724.599 158.219ZM723.157 158.219C723.157 159.003 722.863 159.493 721.589 159.493C720.301 159.493 719.979 159.017 719.979 158.219V158.093C719.979 157.365 720.343 156.861 721.589 156.861C722.821 156.861 723.157 157.379 723.157 158.093V158.219ZM721.589 162.825C722.765 162.825 723.339 162.881 723.339 163.637C723.339 164.449 722.765 164.547 721.589 164.547C720.301 164.547 719.797 164.435 719.797 163.665C719.797 163.357 719.895 162.965 720.315 162.769C720.665 162.811 721.071 162.825 721.589 162.825Z" fill="white"/>
<path d="M547.849 42.0927H551.377C551.881 42.0927 552.007 41.9667 552.007 41.4627V41.3367C552.007 40.8327 551.881 40.7067 551.377 40.7067H547.849V38.9147C547.849 38.5367 548.017 38.3827 548.395 38.3827H551.937C552.441 38.3827 552.567 38.2567 552.567 37.7527V37.6267C552.567 37.1227 552.441 36.9967 551.937 36.9967H547.975C546.855 36.9967 546.379 37.4727 546.379 38.5927V44.5007C546.379 45.6207 546.855 46.0967 547.975 46.0967H551.937C552.441 46.0967 552.567 45.9707 552.567 45.4667V45.3407C552.567 44.8367 552.441 44.7107 551.937 44.7107H548.395C548.017 44.7107 547.849 44.5567 547.849 44.1787V42.0927ZM553.415 40.0067C553.415 40.3987 553.513 40.4967 553.905 40.4967H554.633V45.4667C554.633 45.9707 554.759 46.0967 555.263 46.0967H555.431C555.935 46.0967 556.061 45.9707 556.061 45.4667V40.4967H557.923C558.399 40.4967 558.511 40.3847 558.511 39.9087V39.7407C558.511 39.2647 558.399 39.1527 557.923 39.1527H556.061V38.2287C556.061 37.5007 556.537 37.2767 557.251 37.2767C557.615 37.2767 557.867 37.3047 558.049 37.3327C558.525 37.4027 558.651 37.3047 558.651 36.8287V36.6607C558.651 36.1847 558.525 36.0727 558.049 35.9887C557.839 35.9467 557.475 35.9187 557.153 35.9187C555.697 35.9187 554.633 36.4647 554.633 38.3407V39.1527L553.891 39.2927C553.513 39.3627 553.415 39.4747 553.415 39.8667V40.0067ZM558.897 40.0067C558.897 40.3987 558.995 40.4967 559.387 40.4967H560.115V45.4667C560.115 45.9707 560.241 46.0967 560.745 46.0967H560.913C561.417 46.0967 561.543 45.9707 561.543 45.4667V40.4967H563.405C563.881 40.4967 563.993 40.3847 563.993 39.9087V39.7407C563.993 39.2647 563.881 39.1527 563.405 39.1527H561.543V38.2287C561.543 37.5007 562.019 37.2767 562.733 37.2767C563.097 37.2767 563.349 37.3047 563.531 37.3327C564.007 37.4027 564.133 37.3047 564.133 36.8287V36.6607C564.133 36.1847 564.007 36.0727 563.531 35.9887C563.321 35.9467 562.957 35.9187 562.635 35.9187C561.179 35.9187 560.115 36.4647 560.115 38.3407V39.1527L559.373 39.2927C558.995 39.3627 558.897 39.4747 558.897 39.8667V40.0067ZM569.77 43.2267C569.77 44.3187 569.448 44.8927 568.02 44.8927C566.578 44.8927 566.242 44.3187 566.242 43.2267V42.0227C566.242 40.9307 566.578 40.3427 568.02 40.3427C569.448 40.3427 569.77 40.9307 569.77 42.0227V43.2267ZM568.02 46.2507C570.204 46.2507 571.212 45.1307 571.212 43.2267V42.0227C571.212 40.0627 570.288 38.9987 568.02 38.9987C565.822 38.9987 564.8 40.1047 564.8 42.0227V43.2267C564.8 45.1867 565.738 46.2507 568.02 46.2507ZM574.024 41.5747C574.024 40.7767 574.248 40.3427 575.228 40.3427C575.326 40.3427 575.396 40.3427 575.508 40.3567C575.984 40.4267 576.096 40.3427 576.096 39.8667V39.6707C576.096 39.1947 575.984 39.0687 575.508 39.0127C575.396 38.9987 575.326 38.9987 575.228 38.9987C573.422 38.9987 572.582 39.9087 572.582 41.4767V45.4667C572.582 45.9707 572.708 46.0967 573.212 46.0967H573.394C573.898 46.0967 574.024 45.9707 574.024 45.4667V41.5747ZM576.561 40.0067C576.561 40.3987 576.659 40.4967 577.051 40.4967H577.779V43.6607C577.779 45.6067 578.843 46.2367 580.299 46.2367C580.831 46.2367 581.223 46.1667 581.433 46.1247C581.895 46.0267 582.007 45.9007 582.007 45.4247V45.2567C582.007 44.7807 581.895 44.6687 581.433 44.7667C581.265 44.8087 580.803 44.8927 580.299 44.8927C579.641 44.8927 579.207 44.5987 579.207 43.6747V40.4967H581.167C581.643 40.4967 581.755 40.3847 581.755 39.9087V39.7407C581.755 39.2647 581.643 39.1527 581.167 39.1527H579.207V37.8367C579.207 37.4307 579.109 37.3327 578.703 37.3327H578.521C578.115 37.3327 578.003 37.4307 577.947 37.8367L577.779 39.1527L577.037 39.2927C576.659 39.3627 576.561 39.4747 576.561 39.8667V40.0067ZM583.055 44.1367C583.055 45.6347 583.881 46.2087 584.917 46.2087C585.001 46.2087 585.029 46.2087 585.113 46.1947C585.575 46.1107 585.687 46.0267 585.687 45.5507V45.4107C585.687 44.9347 585.617 44.8507 585.155 44.8507C584.735 44.8507 584.497 44.6407 584.497 43.8567V36.9267C584.497 36.4227 584.371 36.2967 583.867 36.2967H583.685C583.181 36.2967 583.055 36.4227 583.055 36.9267V44.1367ZM592.532 41.8967C592.532 39.9787 591.496 38.9987 589.564 38.9987C587.226 38.9987 586.456 40.2867 586.456 42.0367V43.2547C586.456 45.3967 587.576 46.2507 589.9 46.2507C590.712 46.2507 591.3 46.1387 591.72 46.0267C592.182 45.9007 592.294 45.8167 592.294 45.3407V45.1587C592.294 44.6827 592.182 44.5567 591.72 44.6687C591.3 44.7667 590.642 44.8927 589.9 44.8927C588.486 44.8927 587.898 44.4867 587.898 43.4647V43.1567H591.79C592.308 43.1567 592.448 43.0307 592.504 42.5127C592.518 42.3587 592.532 42.1907 592.532 41.8967ZM587.898 41.6307C587.898 40.6787 588.472 40.2447 589.522 40.2447C590.572 40.2447 591.174 40.6787 591.174 41.6307V41.9807H587.898V41.6307ZM593.714 45.3267C593.714 45.8027 593.812 45.8867 594.274 46.0127C594.638 46.1107 595.24 46.2507 596.192 46.2507C598.18 46.2507 599.02 45.6347 599.02 44.2907C599.02 43.1707 598.46 42.7087 597.522 42.3167L595.898 41.6167C595.422 41.4067 595.24 41.2387 595.24 40.9027C595.24 40.4967 595.534 40.3287 596.472 40.3287C597.354 40.3287 597.788 40.4547 598.138 40.5527C598.6 40.6787 598.712 40.5527 598.712 40.0767V39.9087C598.712 39.4327 598.6 39.3487 598.124 39.2087C597.718 39.0967 597.298 38.9987 596.5 38.9987C594.624 38.9987 593.826 39.6147 593.826 40.9027C593.826 41.9947 594.358 42.4287 595.212 42.8067L596.724 43.4787C597.41 43.7867 597.62 43.9547 597.62 44.3187C597.62 44.7807 597.242 44.9207 596.318 44.9207C595.282 44.9207 594.652 44.7527 594.274 44.6547C593.812 44.5427 593.714 44.6687 593.714 45.1447V45.3267ZM600.195 45.3267C600.195 45.8027 600.293 45.8867 600.755 46.0127C601.119 46.1107 601.721 46.2507 602.673 46.2507C604.661 46.2507 605.501 45.6347 605.501 44.2907C605.501 43.1707 604.941 42.7087 604.003 42.3167L602.379 41.6167C601.903 41.4067 601.721 41.2387 601.721 40.9027C601.721 40.4967 602.015 40.3287 602.953 40.3287C603.835 40.3287 604.269 40.4547 604.619 40.5527C605.081 40.6787 605.193 40.5527 605.193 40.0767V39.9087C605.193 39.4327 605.081 39.3487 604.605 39.2087C604.199 39.0967 603.779 38.9987 602.981 38.9987C601.105 38.9987 600.307 39.6147 600.307 40.9027C600.307 41.9947 600.839 42.4287 601.693 42.8067L603.205 43.4787C603.891 43.7867 604.101 43.9547 604.101 44.3187C604.101 44.7807 603.723 44.9207 602.799 44.9207C601.763 44.9207 601.133 44.7527 600.755 44.6547C600.293 44.5427 600.195 44.6687 600.195 45.1447V45.3267ZM610.359 48.2667C610.359 48.7707 610.485 48.8967 610.989 48.8967H611.157C611.661 48.8967 611.787 48.7707 611.787 48.2667V45.3407C612.137 45.9007 612.767 46.2507 613.845 46.2507C615.861 46.2507 616.757 45.1027 616.757 43.1987V41.9807C616.757 39.9367 615.693 38.9987 613.551 38.9987C611.605 38.9987 610.359 39.9367 610.359 41.9807V48.2667ZM615.315 43.2267C615.315 44.3187 615.007 44.8927 613.565 44.8927C612.123 44.8927 611.787 44.3187 611.787 43.2267V42.0227C611.787 40.9307 612.123 40.3427 613.565 40.3427C615.021 40.3427 615.315 40.9307 615.315 42.0227V43.2267ZM623.611 41.2947C623.611 39.5447 622.337 38.9987 620.447 38.9987C619.691 38.9987 619.369 39.0547 619.047 39.1107C618.655 39.1807 618.543 39.2927 618.543 39.7127V39.9087C618.543 40.3287 618.641 40.4407 619.061 40.3567C619.341 40.3007 619.845 40.2307 620.531 40.2307C621.525 40.2307 622.183 40.4267 622.183 41.2947V41.9807H620.643C618.893 41.9807 617.787 42.5267 617.787 44.0947C617.787 45.5787 618.809 46.2507 620.629 46.2507C622.701 46.2507 623.611 45.5507 623.611 44.0107V41.2947ZM622.183 43.9407C622.183 44.8927 621.511 45.0327 620.601 45.0327C619.887 45.0327 619.229 44.8927 619.229 44.0667C619.229 43.3527 619.691 43.0727 620.643 43.0727H622.183V43.9407ZM625.999 39.7827C625.873 39.2787 625.719 39.1527 625.201 39.1527H625.019C624.501 39.1527 624.403 39.2787 624.529 39.7827L625.705 44.4167C625.971 45.4807 626.265 46.2087 627.399 46.2087C627.637 46.2087 627.889 46.1807 628.043 46.1107C627.735 47.1887 627.203 47.7767 626.237 47.9167C625.887 47.9727 625.747 48.0567 625.845 48.4767L625.887 48.6587C625.985 49.0787 626.153 49.2187 626.517 49.1767C628.141 49.0087 629.051 48.0007 629.513 46.0967L631.025 39.7827C631.151 39.2787 631.053 39.1527 630.535 39.1527H630.353C629.835 39.1527 629.681 39.2787 629.569 39.7827L628.519 44.2907C628.379 44.8787 628.169 44.9767 627.861 44.9767C627.441 44.9767 627.245 44.8787 627.105 44.2907L625.999 39.7827ZM633.716 41.7147C633.716 40.8327 633.968 40.3427 635.116 40.3427C636.264 40.3427 636.502 40.8327 636.502 41.7147V45.4667C636.502 45.9707 636.628 46.0967 637.132 46.0967H637.272C637.776 46.0967 637.902 45.9707 637.902 45.4667V41.7147C637.902 40.8327 638.168 40.3427 639.316 40.3427C640.45 40.3427 640.702 40.8327 640.702 41.7147V45.4667C640.702 45.9707 640.828 46.0967 641.332 46.0967H641.514C642.018 46.0967 642.144 45.9707 642.144 45.4667V41.7147C642.144 39.9647 641.332 38.9987 639.316 38.9987C638.266 38.9987 637.58 39.3767 637.216 40.0207C636.866 39.3767 636.194 38.9987 635.116 38.9987C633.17 38.9987 632.274 39.9927 632.274 41.7147V45.4667C632.274 45.9707 632.4 46.0967 632.904 46.0967H633.086C633.59 46.0967 633.716 45.9707 633.716 45.4667V41.7147ZM649.598 41.8967C649.598 39.9787 648.562 38.9987 646.63 38.9987C644.292 38.9987 643.522 40.2867 643.522 42.0367V43.2547C643.522 45.3967 644.642 46.2507 646.966 46.2507C647.778 46.2507 648.366 46.1387 648.786 46.0267C649.248 45.9007 649.36 45.8167 649.36 45.3407V45.1587C649.36 44.6827 649.248 44.5567 648.786 44.6687C648.366 44.7667 647.708 44.8927 646.966 44.8927C645.552 44.8927 644.964 44.4867 644.964 43.4647V43.1567H648.856C649.374 43.1567 649.514 43.0307 649.57 42.5127C649.584 42.3587 649.598 42.1907 649.598 41.8967ZM644.964 41.6307C644.964 40.6787 645.538 40.2447 646.588 40.2447C647.638 40.2447 648.24 40.6787 648.24 41.6307V41.9807H644.964V41.6307ZM652.419 41.7147C652.419 40.8327 652.713 40.3427 654.029 40.3427C655.359 40.3427 655.625 40.8327 655.625 41.7147V45.4667C655.625 45.9707 655.751 46.0967 656.255 46.0967H656.437C656.941 46.0967 657.067 45.9707 657.067 45.4667V41.7147C657.067 39.9647 656.213 38.9987 654.029 38.9987C651.929 38.9987 650.977 39.9927 650.977 41.7147V45.4667C650.977 45.9707 651.103 46.0967 651.607 46.0967H651.789C652.293 46.0967 652.419 45.9707 652.419 45.4667V41.7147ZM658.018 40.0067C658.018 40.3987 658.116 40.4967 658.508 40.4967H659.236V43.6607C659.236 45.6067 660.3 46.2367 661.756 46.2367C662.288 46.2367 662.68 46.1667 662.89 46.1247C663.352 46.0267 663.464 45.9007 663.464 45.4247V45.2567C663.464 44.7807 663.352 44.6687 662.89 44.7667C662.722 44.8087 662.26 44.8927 661.756 44.8927C661.098 44.8927 660.664 44.5987 660.664 43.6747V40.4967H662.624C663.1 40.4967 663.212 40.3847 663.212 39.9087V39.7407C663.212 39.2647 663.1 39.1527 662.624 39.1527H660.664V37.8367C660.664 37.4307 660.566 37.3327 660.16 37.3327H659.978C659.572 37.3327 659.46 37.4307 659.404 37.8367L659.236 39.1527L658.494 39.2927C658.116 39.3627 658.018 39.4747 658.018 39.8667V40.0067ZM664.302 45.3267C664.302 45.8027 664.4 45.8867 664.862 46.0127C665.226 46.1107 665.828 46.2507 666.78 46.2507C668.768 46.2507 669.608 45.6347 669.608 44.2907C669.608 43.1707 669.048 42.7087 668.11 42.3167L666.486 41.6167C666.01 41.4067 665.828 41.2387 665.828 40.9027C665.828 40.4967 666.122 40.3287 667.06 40.3287C667.942 40.3287 668.376 40.4547 668.726 40.5527C669.188 40.6787 669.3 40.5527 669.3 40.0767V39.9087C669.3 39.4327 669.188 39.3487 668.712 39.2087C668.306 39.0967 667.886 38.9987 667.088 38.9987C665.212 38.9987 664.414 39.6147 664.414 40.9027C664.414 41.9947 664.946 42.4287 665.8 42.8067L667.312 43.4787C667.998 43.7867 668.208 43.9547 668.208 44.3187C668.208 44.7807 667.83 44.9207 666.906 44.9207C665.87 44.9207 665.24 44.7527 664.862 44.6547C664.4 44.5427 664.302 44.6687 664.302 45.1447V45.3267Z" fill="#29CBC1"/>
<path d="M156.349 45.4527C156.349 45.9707 156.475 46.0967 156.993 46.0967H157.133C157.651 46.0967 157.777 45.9707 157.777 45.4527V38.5927C157.777 38.2287 157.847 38.1027 158.057 38.1027C158.267 38.1027 158.337 38.2007 158.435 38.5647L160.171 44.6827C160.493 45.8167 160.899 46.2367 161.949 46.2367C163.027 46.2367 163.545 45.7887 163.545 44.3887V37.6407C163.545 37.1227 163.419 36.9967 162.901 36.9967H162.761C162.243 36.9967 162.117 37.1227 162.117 37.6407V44.5287C162.117 44.8647 162.047 44.9907 161.837 44.9907C161.669 44.9907 161.571 44.9347 161.473 44.5987L159.709 38.3407C159.401 37.2207 158.995 36.8567 158.001 36.8567C156.881 36.8567 156.349 37.3187 156.349 38.7047V45.4527ZM171.261 41.8967C171.261 39.9787 170.225 38.9987 168.293 38.9987C165.955 38.9987 165.185 40.2867 165.185 42.0367V43.2547C165.185 45.3967 166.305 46.2507 168.629 46.2507C169.441 46.2507 170.029 46.1387 170.449 46.0267C170.911 45.9007 171.023 45.8167 171.023 45.3407V45.1587C171.023 44.6827 170.911 44.5567 170.449 44.6687C170.029 44.7667 169.371 44.8927 168.629 44.8927C167.215 44.8927 166.627 44.4867 166.627 43.4647V43.1567H170.519C171.037 43.1567 171.177 43.0307 171.233 42.5127C171.247 42.3587 171.261 42.1907 171.261 41.8967ZM166.627 41.6307C166.627 40.6787 167.201 40.2447 168.251 40.2447C169.301 40.2447 169.903 40.6787 169.903 41.6307V41.9807H166.627V41.6307ZM173.488 39.7687C173.376 39.2787 173.222 39.1527 172.718 39.1527H172.508C172.004 39.1527 171.906 39.2787 172.032 39.7687L173.152 44.3887C173.46 45.6627 173.768 46.2367 175.28 46.2367C176.792 46.2367 177.1 45.6487 177.408 44.3887L178.528 39.7687C178.654 39.2787 178.556 39.1527 178.052 39.1527H177.842C177.338 39.1527 177.184 39.2787 177.072 39.7687L175.98 44.3187C175.84 44.9067 175.658 44.9907 175.28 44.9907C174.902 44.9907 174.72 44.8927 174.58 44.3187L173.488 39.7687ZM185.371 41.8967C185.371 39.9787 184.335 38.9987 182.403 38.9987C180.065 38.9987 179.295 40.2867 179.295 42.0367V43.2547C179.295 45.3967 180.415 46.2507 182.739 46.2507C183.551 46.2507 184.139 46.1387 184.559 46.0267C185.021 45.9007 185.133 45.8167 185.133 45.3407V45.1587C185.133 44.6827 185.021 44.5567 184.559 44.6687C184.139 44.7667 183.481 44.8927 182.739 44.8927C181.325 44.8927 180.737 44.4867 180.737 43.4647V43.1567H184.629C185.147 43.1567 185.287 43.0307 185.343 42.5127C185.357 42.3587 185.371 42.1907 185.371 41.8967ZM180.737 41.6307C180.737 40.6787 181.311 40.2447 182.361 40.2447C183.411 40.2447 184.013 40.6787 184.013 41.6307V41.9807H180.737V41.6307ZM188.191 41.5747C188.191 40.7767 188.415 40.3427 189.395 40.3427C189.493 40.3427 189.563 40.3427 189.675 40.3567C190.151 40.4267 190.263 40.3427 190.263 39.8667V39.6707C190.263 39.1947 190.151 39.0687 189.675 39.0127C189.563 38.9987 189.493 38.9987 189.395 38.9987C187.589 38.9987 186.749 39.9087 186.749 41.4767V45.4667C186.749 45.9707 186.875 46.0967 187.379 46.0967H187.561C188.065 46.0967 188.191 45.9707 188.191 45.4667V41.5747ZM194.748 44.1367C194.748 45.6347 195.574 46.2087 196.61 46.2087C196.694 46.2087 196.722 46.2087 196.806 46.1947C197.268 46.1107 197.38 46.0267 197.38 45.5507V45.4107C197.38 44.9347 197.31 44.8507 196.848 44.8507C196.428 44.8507 196.19 44.6407 196.19 43.8567V36.9267C196.19 36.4227 196.064 36.2967 195.56 36.2967H195.378C194.874 36.2967 194.748 36.4227 194.748 36.9267V44.1367ZM203.118 43.2267C203.118 44.3187 202.796 44.8927 201.368 44.8927C199.926 44.8927 199.59 44.3187 199.59 43.2267V42.0227C199.59 40.9307 199.926 40.3427 201.368 40.3427C202.796 40.3427 203.118 40.9307 203.118 42.0227V43.2267ZM201.368 46.2507C203.552 46.2507 204.56 45.1307 204.56 43.2267V42.0227C204.56 40.0627 203.636 38.9987 201.368 38.9987C199.17 38.9987 198.148 40.1047 198.148 42.0227V43.2267C198.148 45.1867 199.086 46.2507 201.368 46.2507ZM205.735 45.3267C205.735 45.8027 205.833 45.8867 206.295 46.0127C206.659 46.1107 207.261 46.2507 208.213 46.2507C210.201 46.2507 211.041 45.6347 211.041 44.2907C211.041 43.1707 210.481 42.7087 209.543 42.3167L207.919 41.6167C207.443 41.4067 207.261 41.2387 207.261 40.9027C207.261 40.4967 207.555 40.3287 208.493 40.3287C209.375 40.3287 209.809 40.4547 210.159 40.5527C210.621 40.6787 210.733 40.5527 210.733 40.0767V39.9087C210.733 39.4327 210.621 39.3487 210.145 39.2087C209.739 39.0967 209.319 38.9987 208.521 38.9987C206.645 38.9987 205.847 39.6147 205.847 40.9027C205.847 41.9947 206.379 42.4287 207.233 42.8067L208.745 43.4787C209.431 43.7867 209.641 43.9547 209.641 44.3187C209.641 44.7807 209.263 44.9207 208.339 44.9207C207.303 44.9207 206.673 44.7527 206.295 44.6547C205.833 44.5427 205.735 44.6687 205.735 45.1447V45.3267ZM218.347 41.8967C218.347 39.9787 217.311 38.9987 215.379 38.9987C213.041 38.9987 212.271 40.2867 212.271 42.0367V43.2547C212.271 45.3967 213.391 46.2507 215.715 46.2507C216.527 46.2507 217.115 46.1387 217.535 46.0267C217.997 45.9007 218.109 45.8167 218.109 45.3407V45.1587C218.109 44.6827 217.997 44.5567 217.535 44.6687C217.115 44.7667 216.457 44.8927 215.715 44.8927C214.301 44.8927 213.713 44.4867 213.713 43.4647V43.1567H217.605C218.123 43.1567 218.263 43.0307 218.319 42.5127C218.333 42.3587 218.347 42.1907 218.347 41.8967ZM213.713 41.6307C213.713 40.6787 214.287 40.2447 215.337 40.2447C216.387 40.2447 216.989 40.6787 216.989 41.6307V41.9807H213.713V41.6307Z" fill="#29CBC1"/>
<path d="M136.87 158.213H275.32" stroke="#29CBC1"/>
<line x1="505.448" y1="160.292" x2="639.378" y2="160.292" stroke="#29CBC1"/>
<g filter="url(#filter2_dd)">
<path d="M429.302 211.44C504.208 150.786 546.449 78.939 523.651 50.9663C500.852 22.9937 421.646 49.4878 346.741 110.143C271.835 170.797 229.593 242.644 252.392 270.617C275.191 298.589 354.396 272.095 429.302 211.44Z" stroke="#29CBC1" stroke-width="0.99" stroke-miterlimit="10"/>
</g>
<path d="M523.514 270.662C546.313 242.689 504.071 170.843 429.166 110.188C354.26 49.5332 275.054 23.0391 252.256 51.0118C229.457 78.9844 271.698 150.831 346.604 211.486C421.51 272.141 500.715 298.635 523.514 270.662Z" stroke="#29CBC1" stroke-width="0.99" stroke-miterlimit="10"/>
<path d="M576.559 160.837C576.559 169.028 571.404 176.917 561.879 184.168C552.363 191.414 538.561 197.961 521.46 203.467C487.265 214.479 439.994 221.299 387.757 221.299C335.521 221.299 288.249 214.479 254.054 203.467C236.954 197.961 223.152 191.414 213.635 184.168C204.111 176.917 198.956 169.028 198.956 160.837C198.956 152.646 204.111 144.757 213.635 137.506C223.152 130.26 236.954 123.713 254.054 118.206C288.249 107.194 335.521 100.375 387.757 100.375C439.994 100.375 487.265 107.194 521.46 118.206C538.561 123.713 552.363 130.26 561.879 137.506C571.404 144.757 576.559 152.646 576.559 160.837Z" stroke="#29CBC1"/>
<circle cx="209.243" cy="180.82" r="12.6067" fill="#03090D" stroke="#29CBC1"/>
<circle cx="538.868" cy="126.759" r="12.6067" fill="#03090D" stroke="#29CBC1"/>
<g filter="url(#filter3_ddd)">
<path d="M258.65 117.682C259.75 119.041 261.743 119.251 263.103 118.151C264.462 117.052 264.672 115.058 263.572 113.699C262.473 112.34 260.479 112.129 259.12 113.229C257.761 114.329 257.55 116.322 258.65 117.682Z" fill="#29CBC1"/>
</g>
<g filter="url(#filter4_ddd)">
<path d="M318.483 106.319C319.583 107.678 321.576 107.888 322.936 106.789C324.295 105.689 324.505 103.696 323.405 102.336C322.306 100.977 320.312 100.767 318.953 101.866C317.594 102.966 317.383 104.96 318.483 106.319Z" fill="#29CBC1"/>
</g>
<g filter="url(#filter5_ddd)">
<path d="M253.728 277.021C254.828 278.381 256.821 278.591 258.181 277.491C259.54 276.391 259.75 274.398 258.65 273.039C257.551 271.68 255.557 271.469 254.198 272.569C252.839 273.669 252.628 275.662 253.728 277.021Z" fill="#29CBC1"/>
</g>
<g filter="url(#filter6_ddd)">
<path d="M251.767 48.6355C252.867 49.9948 254.86 50.2051 256.22 49.1053C257.579 48.0056 257.789 46.0122 256.69 44.6529C255.59 43.2937 253.596 43.0833 252.237 44.1831C250.878 45.2828 250.667 47.2763 251.767 48.6355Z" fill="#29CBC1"/>
</g>
<g filter="url(#filter7_ddd)">
<path d="M291.265 162.358C292.365 163.718 294.358 163.928 295.718 162.828C297.077 161.728 297.287 159.735 296.188 158.376C295.088 157.017 293.094 156.806 291.735 157.906C290.376 159.006 290.166 160.999 291.265 162.358Z" fill="#29CBC1"/>
</g>
<g filter="url(#filter8_ddd)">
<path d="M206.782 183.206C207.882 184.565 209.875 184.775 211.234 183.676C212.594 182.576 212.804 180.582 211.704 179.223C210.604 177.864 208.611 177.653 207.252 178.753C205.893 179.853 205.682 181.846 206.782 183.206Z" fill="#29CBC1"/>
</g>
<g filter="url(#filter9_ddd)">
<path d="M536.878 128.281C537.977 129.64 539.971 129.85 541.33 128.75C542.689 127.651 542.9 125.657 541.8 124.298C540.7 122.939 538.707 122.728 537.347 123.828C535.988 124.928 535.778 126.921 536.878 128.281Z" fill="#29CBC1"/>
</g>
<g filter="url(#filter10_ddd)">
<path d="M512.168 206.857C513.267 208.217 515.261 208.427 516.62 207.327C517.979 206.228 518.19 204.234 517.09 202.875C515.99 201.516 513.997 201.305 512.638 202.405C511.278 203.505 511.068 205.498 512.168 206.857Z" fill="#29CBC1"/>
</g>
<g filter="url(#filter11_ddd)">
<path d="M386.03 243.181C387.13 244.54 389.123 244.75 390.482 243.651C391.842 242.551 392.052 240.557 390.952 239.198C389.852 237.839 387.859 237.628 386.5 238.728C385.141 239.828 384.93 241.821 386.03 243.181Z" fill="#29CBC1"/>
</g>
<g filter="url(#filter12_ddd)">
<path d="M415.227 221.93C416.327 223.29 418.32 223.5 419.68 222.4C421.039 221.3 421.249 219.307 420.149 217.948C419.05 216.588 417.056 216.378 415.697 217.478C414.338 218.578 414.127 220.571 415.227 221.93Z" fill="#29CBC1"/>
</g>
<g filter="url(#filter13_ddd)">
<path d="M516.621 277.671C517.721 279.03 519.714 279.24 521.073 278.14C522.432 277.041 522.643 275.047 521.543 273.688C520.443 272.329 518.45 272.118 517.091 273.218C515.731 274.318 515.521 276.311 516.621 277.671Z" fill="#29CBC1"/>
</g>
<g filter="url(#filter14_ddd)">
<path d="M518.848 50.8358C519.948 52.1951 521.941 52.4054 523.301 51.3057C524.66 50.2059 524.87 48.2125 523.771 46.8532C522.671 45.494 520.677 45.2836 519.318 46.3834C517.959 47.4831 517.749 49.4766 518.848 50.8358Z" fill="#29CBC1"/>
</g>
<g filter="url(#filter15_ddd)">
<path d="M414.757 102.336C415.856 103.696 417.85 103.906 419.209 102.806C420.568 101.706 420.779 99.713 419.679 98.3537C418.579 96.9945 416.586 96.7841 415.226 97.8839C413.867 98.9836 413.657 100.977 414.757 102.336Z" fill="#29CBC1"/>
</g>
<defs>
<filter id="filter0_d" x="367.246" y="133.599" width="46.7539" height="54.0083" filterUnits="userSpaceOnUse" color-interpolation-filters="sRGB">
<feFlood flood-opacity="0" result="BackgroundImageFix"/>
<feColorMatrix in="SourceAlpha" type="matrix" values="0 0 0 0 0 0 0 0 0 0 0 0 0 0 0 0 0 0 127 0" result="hardAlpha"/>
<feOffset/>
<feGaussianBlur stdDeviation="2"/>
<feColorMatrix type="matrix" values="0 0 0 0 0.162483 0 0 0 0 0.795833 0 0 0 0 0.757448 0 0 0 1 0"/>
<feBlend mode="normal" in2="BackgroundImageFix" result="effect1_dropShadow"/>
<feBlend mode="normal" in="SourceGraphic" in2="effect1_dropShadow" result="shape"/>
</filter>
<filter id="filter1_d" x="360.516" y="135.509" width="46.7295" height="53.5657" filterUnits="userSpaceOnUse" color-interpolation-filters="sRGB">
<feFlood flood-opacity="0" result="BackgroundImageFix"/>
<feColorMatrix in="SourceAlpha" type="matrix" values="0 0 0 0 0 0 0 0 0 0 0 0 0 0 0 0 0 0 127 0" result="hardAlpha"/>
<feOffset dx="-1" dy="1"/>
<feGaussianBlur stdDeviation="2"/>
<feColorMatrix type="matrix" values="0 0 0 0 0.162483 0 0 0 0 0.795833 0 0 0 0 0.757448 0 0 0 1 0"/>
<feBlend mode="normal" in2="BackgroundImageFix" result="effect1_dropShadow"/>
<feBlend mode="normal" in="SourceGraphic" in2="effect1_dropShadow" result="shape"/>
</filter>
<filter id="filter2_dd" x="235.716" y="29.3264" width="304.611" height="262.93" filterUnits="userSpaceOnUse" color-interpolation-filters="sRGB">
<feFlood flood-opacity="0" result="BackgroundImageFix"/>
<feColorMatrix in="SourceAlpha" type="matrix" values="0 0 0 0 0 0 0 0 0 0 0 0 0 0 0 0 0 0 127 0" result="hardAlpha"/>
<feOffset/>
<feGaussianBlur stdDeviation="5"/>
<feColorMatrix type="matrix" values="0 0 0 0 0.162483 0 0 0 0 0.795833 0 0 0 0 0.757448 0 0 0 1 0"/>
<feBlend mode="normal" in2="BackgroundImageFix" result="effect1_dropShadow"/>
<feColorMatrix in="SourceAlpha" type="matrix" values="0 0 0 0 0 0 0 0 0 0 0 0 0 0 0 0 0 0 127 0" result="hardAlpha"/>
<feOffset/>
<feGaussianBlur stdDeviation="5"/>
<feColorMatrix type="matrix" values="0 0 0 0 0.162483 0 0 0 0 0.795833 0 0 0 0 0.757448 0 0 0 1 0"/>
<feBlend mode="normal" in2="effect1_dropShadow" result="effect2_dropShadow"/>
<feBlend mode="normal" in="SourceGraphic" in2="effect2_dropShadow" result="shape"/>
</filter>
<filter id="filter3_ddd" x="246.659" y="101.238" width="28.9043" height="28.9049" filterUnits="userSpaceOnUse" color-interpolation-filters="sRGB">
<feFlood flood-opacity="0" result="BackgroundImageFix"/>
<feColorMatrix in="SourceAlpha" type="matrix" values="0 0 0 0 0 0 0 0 0 0 0 0 0 0 0 0 0 0 127 0" result="hardAlpha"/>
<feOffset/>
<feGaussianBlur stdDeviation="5"/>
<feColorMatrix type="matrix" values="0 0 0 0 0.162483 0 0 0 0 0.795833 0 0 0 0 0.757448 0 0 0 1 0"/>
<feBlend mode="normal" in2="BackgroundImageFix" result="effect1_dropShadow"/>
<feColorMatrix in="SourceAlpha" type="matrix" values="0 0 0 0 0 0 0 0 0 0 0 0 0 0 0 0 0 0 127 0" result="hardAlpha"/>
<feOffset/>
<feGaussianBlur stdDeviation="5"/>
<feColorMatrix type="matrix" values="0 0 0 0 0.162483 0 0 0 0 0.795833 0 0 0 0 0.757448 0 0 0 1 0"/>
<feBlend mode="normal" in2="effect1_dropShadow" result="effect2_dropShadow"/>
<feColorMatrix in="SourceAlpha" type="matrix" values="0 0 0 0 0 0 0 0 0 0 0 0 0 0 0 0 0 0 127 0" result="hardAlpha"/>
<feOffset/>
<feGaussianBlur stdDeviation="5"/>
<feColorMatrix type="matrix" values="0 0 0 0 0.162483 0 0 0 0 0.795833 0 0 0 0 0.757448 0 0 0 1 0"/>
<feBlend mode="normal" in2="effect2_dropShadow" result="effect3_dropShadow"/>
<feBlend mode="normal" in="SourceGraphic" in2="effect3_dropShadow" result="shape"/>
</filter>
<filter id="filter4_ddd" x="306.492" y="89.8751" width="28.9043" height="28.9049" filterUnits="userSpaceOnUse" color-interpolation-filters="sRGB">
<feFlood flood-opacity="0" result="BackgroundImageFix"/>
<feColorMatrix in="SourceAlpha" type="matrix" values="0 0 0 0 0 0 0 0 0 0 0 0 0 0 0 0 0 0 127 0" result="hardAlpha"/>
<feOffset/>
<feGaussianBlur stdDeviation="5"/>
<feColorMatrix type="matrix" values="0 0 0 0 0.162483 0 0 0 0 0.795833 0 0 0 0 0.757448 0 0 0 1 0"/>
<feBlend mode="normal" in2="BackgroundImageFix" result="effect1_dropShadow"/>
<feColorMatrix in="SourceAlpha" type="matrix" values="0 0 0 0 0 0 0 0 0 0 0 0 0 0 0 0 0 0 127 0" result="hardAlpha"/>
<feOffset/>
<feGaussianBlur stdDeviation="5"/>
<feColorMatrix type="matrix" values="0 0 0 0 0.162483 0 0 0 0 0.795833 0 0 0 0 0.757448 0 0 0 1 0"/>
<feBlend mode="normal" in2="effect1_dropShadow" result="effect2_dropShadow"/>
<feColorMatrix in="SourceAlpha" type="matrix" values="0 0 0 0 0 0 0 0 0 0 0 0 0 0 0 0 0 0 127 0" result="hardAlpha"/>
<feOffset/>
<feGaussianBlur stdDeviation="5"/>
<feColorMatrix type="matrix" values="0 0 0 0 0.162483 0 0 0 0 0.795833 0 0 0 0 0.757448 0 0 0 1 0"/>
<feBlend mode="normal" in2="effect2_dropShadow" result="effect3_dropShadow"/>
<feBlend mode="normal" in="SourceGraphic" in2="effect3_dropShadow" result="shape"/>
</filter>
<filter id="filter5_ddd" x="241.737" y="260.578" width="28.9043" height="28.9049" filterUnits="userSpaceOnUse" color-interpolation-filters="sRGB">
<feFlood flood-opacity="0" result="BackgroundImageFix"/>
<feColorMatrix in="SourceAlpha" type="matrix" values="0 0 0 0 0 0 0 0 0 0 0 0 0 0 0 0 0 0 127 0" result="hardAlpha"/>
<feOffset/>
<feGaussianBlur stdDeviation="5"/>
<feColorMatrix type="matrix" values="0 0 0 0 0.162483 0 0 0 0 0.795833 0 0 0 0 0.757448 0 0 0 1 0"/>
<feBlend mode="normal" in2="BackgroundImageFix" result="effect1_dropShadow"/>
<feColorMatrix in="SourceAlpha" type="matrix" values="0 0 0 0 0 0 0 0 0 0 0 0 0 0 0 0 0 0 127 0" result="hardAlpha"/>
<feOffset/>
<feGaussianBlur stdDeviation="5"/>
<feColorMatrix type="matrix" values="0 0 0 0 0.162483 0 0 0 0 0.795833 0 0 0 0 0.757448 0 0 0 1 0"/>
<feBlend mode="normal" in2="effect1_dropShadow" result="effect2_dropShadow"/>
<feColorMatrix in="SourceAlpha" type="matrix" values="0 0 0 0 0 0 0 0 0 0 0 0 0 0 0 0 0 0 127 0" result="hardAlpha"/>
<feOffset/>
<feGaussianBlur stdDeviation="5"/>
<feColorMatrix type="matrix" values="0 0 0 0 0.162483 0 0 0 0 0.795833 0 0 0 0 0.757448 0 0 0 1 0"/>
<feBlend mode="normal" in2="effect2_dropShadow" result="effect3_dropShadow"/>
<feBlend mode="normal" in="SourceGraphic" in2="effect3_dropShadow" result="shape"/>
</filter>
<filter id="filter6_ddd" x="239.776" y="32.1918" width="28.9043" height="28.9049" filterUnits="userSpaceOnUse" color-interpolation-filters="sRGB">
<feFlood flood-opacity="0" result="BackgroundImageFix"/>
<feColorMatrix in="SourceAlpha" type="matrix" values="0 0 0 0 0 0 0 0 0 0 0 0 0 0 0 0 0 0 127 0" result="hardAlpha"/>
<feOffset/>
<feGaussianBlur stdDeviation="5"/>
<feColorMatrix type="matrix" values="0 0 0 0 0.162483 0 0 0 0 0.795833 0 0 0 0 0.757448 0 0 0 1 0"/>
<feBlend mode="normal" in2="BackgroundImageFix" result="effect1_dropShadow"/>
<feColorMatrix in="SourceAlpha" type="matrix" values="0 0 0 0 0 0 0 0 0 0 0 0 0 0 0 0 0 0 127 0" result="hardAlpha"/>
<feOffset/>
<feGaussianBlur stdDeviation="5"/>
<feColorMatrix type="matrix" values="0 0 0 0 0.162483 0 0 0 0 0.795833 0 0 0 0 0.757448 0 0 0 1 0"/>
<feBlend mode="normal" in2="effect1_dropShadow" result="effect2_dropShadow"/>
<feColorMatrix in="SourceAlpha" type="matrix" values="0 0 0 0 0 0 0 0 0 0 0 0 0 0 0 0 0 0 127 0" result="hardAlpha"/>
<feOffset/>
<feGaussianBlur stdDeviation="5"/>
<feColorMatrix type="matrix" values="0 0 0 0 0.162483 0 0 0 0 0.795833 0 0 0 0 0.757448 0 0 0 1 0"/>
<feBlend mode="normal" in2="effect2_dropShadow" result="effect3_dropShadow"/>
<feBlend mode="normal" in="SourceGraphic" in2="effect3_dropShadow" result="shape"/>
</filter>
<filter id="filter7_ddd" x="279.274" y="145.915" width="28.9043" height="28.9049" filterUnits="userSpaceOnUse" color-interpolation-filters="sRGB">
<feFlood flood-opacity="0" result="BackgroundImageFix"/>
<feColorMatrix in="SourceAlpha" type="matrix" values="0 0 0 0 0 0 0 0 0 0 0 0 0 0 0 0 0 0 127 0" result="hardAlpha"/>
<feOffset/>
<feGaussianBlur stdDeviation="5"/>
<feColorMatrix type="matrix" values="0 0 0 0 0.162483 0 0 0 0 0.795833 0 0 0 0 0.757448 0 0 0 1 0"/>
<feBlend mode="normal" in2="BackgroundImageFix" result="effect1_dropShadow"/>
<feColorMatrix in="SourceAlpha" type="matrix" values="0 0 0 0 0 0 0 0 0 0 0 0 0 0 0 0 0 0 127 0" result="hardAlpha"/>
<feOffset/>
<feGaussianBlur stdDeviation="5"/>
<feColorMatrix type="matrix" values="0 0 0 0 0.162483 0 0 0 0 0.795833 0 0 0 0 0.757448 0 0 0 1 0"/>
<feBlend mode="normal" in2="effect1_dropShadow" result="effect2_dropShadow"/>
<feColorMatrix in="SourceAlpha" type="matrix" values="0 0 0 0 0 0 0 0 0 0 0 0 0 0 0 0 0 0 127 0" result="hardAlpha"/>
<feOffset/>
<feGaussianBlur stdDeviation="5"/>
<feColorMatrix type="matrix" values="0 0 0 0 0.162483 0 0 0 0 0.795833 0 0 0 0 0.757448 0 0 0 1 0"/>
<feBlend mode="normal" in2="effect2_dropShadow" result="effect3_dropShadow"/>
<feBlend mode="normal" in="SourceGraphic" in2="effect3_dropShadow" result="shape"/>
</filter>
<filter id="filter8_ddd" x="194.791" y="166.762" width="28.9043" height="28.9049" filterUnits="userSpaceOnUse" color-interpolation-filters="sRGB">
<feFlood flood-opacity="0" result="BackgroundImageFix"/>
<feColorMatrix in="SourceAlpha" type="matrix" values="0 0 0 0 0 0 0 0 0 0 0 0 0 0 0 0 0 0 127 0" result="hardAlpha"/>
<feOffset/>
<feGaussianBlur stdDeviation="5"/>
<feColorMatrix type="matrix" values="0 0 0 0 0.162483 0 0 0 0 0.795833 0 0 0 0 0.757448 0 0 0 1 0"/>
<feBlend mode="normal" in2="BackgroundImageFix" result="effect1_dropShadow"/>
<feColorMatrix in="SourceAlpha" type="matrix" values="0 0 0 0 0 0 0 0 0 0 0 0 0 0 0 0 0 0 127 0" result="hardAlpha"/>
<feOffset/>
<feGaussianBlur stdDeviation="5"/>
<feColorMatrix type="matrix" values="0 0 0 0 0.162483 0 0 0 0 0.795833 0 0 0 0 0.757448 0 0 0 1 0"/>
<feBlend mode="normal" in2="effect1_dropShadow" result="effect2_dropShadow"/>
<feColorMatrix in="SourceAlpha" type="matrix" values="0 0 0 0 0 0 0 0 0 0 0 0 0 0 0 0 0 0 127 0" result="hardAlpha"/>
<feOffset/>
<feGaussianBlur stdDeviation="5"/>
<feColorMatrix type="matrix" values="0 0 0 0 0.162483 0 0 0 0 0.795833 0 0 0 0 0.757448 0 0 0 1 0"/>
<feBlend mode="normal" in2="effect2_dropShadow" result="effect3_dropShadow"/>
<feBlend mode="normal" in="SourceGraphic" in2="effect3_dropShadow" result="shape"/>
</filter>
<filter id="filter9_ddd" x="524.887" y="111.837" width="28.9043" height="28.9049" filterUnits="userSpaceOnUse" color-interpolation-filters="sRGB">
<feFlood flood-opacity="0" result="BackgroundImageFix"/>
<feColorMatrix in="SourceAlpha" type="matrix" values="0 0 0 0 0 0 0 0 0 0 0 0 0 0 0 0 0 0 127 0" result="hardAlpha"/>
<feOffset/>
<feGaussianBlur stdDeviation="5"/>
<feColorMatrix type="matrix" values="0 0 0 0 0.162483 0 0 0 0 0.795833 0 0 0 0 0.757448 0 0 0 1 0"/>
<feBlend mode="normal" in2="BackgroundImageFix" result="effect1_dropShadow"/>
<feColorMatrix in="SourceAlpha" type="matrix" values="0 0 0 0 0 0 0 0 0 0 0 0 0 0 0 0 0 0 127 0" result="hardAlpha"/>
<feOffset/>
<feGaussianBlur stdDeviation="5"/>
<feColorMatrix type="matrix" values="0 0 0 0 0.162483 0 0 0 0 0.795833 0 0 0 0 0.757448 0 0 0 1 0"/>
<feBlend mode="normal" in2="effect1_dropShadow" result="effect2_dropShadow"/>
<feColorMatrix in="SourceAlpha" type="matrix" values="0 0 0 0 0 0 0 0 0 0 0 0 0 0 0 0 0 0 127 0" result="hardAlpha"/>
<feOffset/>
<feGaussianBlur stdDeviation="5"/>
<feColorMatrix type="matrix" values="0 0 0 0 0.162483 0 0 0 0 0.795833 0 0 0 0 0.757448 0 0 0 1 0"/>
<feBlend mode="normal" in2="effect2_dropShadow" result="effect3_dropShadow"/>
<feBlend mode="normal" in="SourceGraphic" in2="effect3_dropShadow" result="shape"/>
</filter>
<filter id="filter10_ddd" x="500.177" y="190.414" width="28.9043" height="28.9049" filterUnits="userSpaceOnUse" color-interpolation-filters="sRGB">
<feFlood flood-opacity="0" result="BackgroundImageFix"/>
<feColorMatrix in="SourceAlpha" type="matrix" values="0 0 0 0 0 0 0 0 0 0 0 0 0 0 0 0 0 0 127 0" result="hardAlpha"/>
<feOffset/>
<feGaussianBlur stdDeviation="5"/>
<feColorMatrix type="matrix" values="0 0 0 0 0.162483 0 0 0 0 0.795833 0 0 0 0 0.757448 0 0 0 1 0"/>
<feBlend mode="normal" in2="BackgroundImageFix" result="effect1_dropShadow"/>
<feColorMatrix in="SourceAlpha" type="matrix" values="0 0 0 0 0 0 0 0 0 0 0 0 0 0 0 0 0 0 127 0" result="hardAlpha"/>
<feOffset/>
<feGaussianBlur stdDeviation="5"/>
<feColorMatrix type="matrix" values="0 0 0 0 0.162483 0 0 0 0 0.795833 0 0 0 0 0.757448 0 0 0 1 0"/>
<feBlend mode="normal" in2="effect1_dropShadow" result="effect2_dropShadow"/>
<feColorMatrix in="SourceAlpha" type="matrix" values="0 0 0 0 0 0 0 0 0 0 0 0 0 0 0 0 0 0 127 0" result="hardAlpha"/>
<feOffset/>
<feGaussianBlur stdDeviation="5"/>
<feColorMatrix type="matrix" values="0 0 0 0 0.162483 0 0 0 0 0.795833 0 0 0 0 0.757448 0 0 0 1 0"/>
<feBlend mode="normal" in2="effect2_dropShadow" result="effect3_dropShadow"/>
<feBlend mode="normal" in="SourceGraphic" in2="effect3_dropShadow" result="shape"/>
</filter>
<filter id="filter11_ddd" x="374.039" y="226.737" width="28.9043" height="28.9049" filterUnits="userSpaceOnUse" color-interpolation-filters="sRGB">
<feFlood flood-opacity="0" result="BackgroundImageFix"/>
<feColorMatrix in="SourceAlpha" type="matrix" values="0 0 0 0 0 0 0 0 0 0 0 0 0 0 0 0 0 0 127 0" result="hardAlpha"/>
<feOffset/>
<feGaussianBlur stdDeviation="5"/>
<feColorMatrix type="matrix" values="0 0 0 0 0.162483 0 0 0 0 0.795833 0 0 0 0 0.757448 0 0 0 1 0"/>
<feBlend mode="normal" in2="BackgroundImageFix" result="effect1_dropShadow"/>
<feColorMatrix in="SourceAlpha" type="matrix" values="0 0 0 0 0 0 0 0 0 0 0 0 0 0 0 0 0 0 127 0" result="hardAlpha"/>
<feOffset/>
<feGaussianBlur stdDeviation="5"/>
<feColorMatrix type="matrix" values="0 0 0 0 0.162483 0 0 0 0 0.795833 0 0 0 0 0.757448 0 0 0 1 0"/>
<feBlend mode="normal" in2="effect1_dropShadow" result="effect2_dropShadow"/>
<feColorMatrix in="SourceAlpha" type="matrix" values="0 0 0 0 0 0 0 0 0 0 0 0 0 0 0 0 0 0 127 0" result="hardAlpha"/>
<feOffset/>
<feGaussianBlur stdDeviation="5"/>
<feColorMatrix type="matrix" values="0 0 0 0 0.162483 0 0 0 0 0.795833 0 0 0 0 0.757448 0 0 0 1 0"/>
<feBlend mode="normal" in2="effect2_dropShadow" result="effect3_dropShadow"/>
<feBlend mode="normal" in="SourceGraphic" in2="effect3_dropShadow" result="shape"/>
</filter>
<filter id="filter12_ddd" x="403.236" y="205.487" width="28.9043" height="28.9049" filterUnits="userSpaceOnUse" color-interpolation-filters="sRGB">
<feFlood flood-opacity="0" result="BackgroundImageFix"/>
<feColorMatrix in="SourceAlpha" type="matrix" values="0 0 0 0 0 0 0 0 0 0 0 0 0 0 0 0 0 0 127 0" result="hardAlpha"/>
<feOffset/>
<feGaussianBlur stdDeviation="5"/>
<feColorMatrix type="matrix" values="0 0 0 0 0.162483 0 0 0 0 0.795833 0 0 0 0 0.757448 0 0 0 1 0"/>
<feBlend mode="normal" in2="BackgroundImageFix" result="effect1_dropShadow"/>
<feColorMatrix in="SourceAlpha" type="matrix" values="0 0 0 0 0 0 0 0 0 0 0 0 0 0 0 0 0 0 127 0" result="hardAlpha"/>
<feOffset/>
<feGaussianBlur stdDeviation="5"/>
<feColorMatrix type="matrix" values="0 0 0 0 0.162483 0 0 0 0 0.795833 0 0 0 0 0.757448 0 0 0 1 0"/>
<feBlend mode="normal" in2="effect1_dropShadow" result="effect2_dropShadow"/>
<feColorMatrix in="SourceAlpha" type="matrix" values="0 0 0 0 0 0 0 0 0 0 0 0 0 0 0 0 0 0 127 0" result="hardAlpha"/>
<feOffset/>
<feGaussianBlur stdDeviation="5"/>
<feColorMatrix type="matrix" values="0 0 0 0 0.162483 0 0 0 0 0.795833 0 0 0 0 0.757448 0 0 0 1 0"/>
<feBlend mode="normal" in2="effect2_dropShadow" result="effect3_dropShadow"/>
<feBlend mode="normal" in="SourceGraphic" in2="effect3_dropShadow" result="shape"/>
</filter>
<filter id="filter13_ddd" x="504.63" y="261.227" width="28.9043" height="28.9049" filterUnits="userSpaceOnUse" color-interpolation-filters="sRGB">
<feFlood flood-opacity="0" result="BackgroundImageFix"/>
<feColorMatrix in="SourceAlpha" type="matrix" values="0 0 0 0 0 0 0 0 0 0 0 0 0 0 0 0 0 0 127 0" result="hardAlpha"/>
<feOffset/>
<feGaussianBlur stdDeviation="5"/>
<feColorMatrix type="matrix" values="0 0 0 0 0.162483 0 0 0 0 0.795833 0 0 0 0 0.757448 0 0 0 1 0"/>
<feBlend mode="normal" in2="BackgroundImageFix" result="effect1_dropShadow"/>
<feColorMatrix in="SourceAlpha" type="matrix" values="0 0 0 0 0 0 0 0 0 0 0 0 0 0 0 0 0 0 127 0" result="hardAlpha"/>
<feOffset/>
<feGaussianBlur stdDeviation="5"/>
<feColorMatrix type="matrix" values="0 0 0 0 0.162483 0 0 0 0 0.795833 0 0 0 0 0.757448 0 0 0 1 0"/>
<feBlend mode="normal" in2="effect1_dropShadow" result="effect2_dropShadow"/>
<feColorMatrix in="SourceAlpha" type="matrix" values="0 0 0 0 0 0 0 0 0 0 0 0 0 0 0 0 0 0 127 0" result="hardAlpha"/>
<feOffset/>
<feGaussianBlur stdDeviation="5"/>
<feColorMatrix type="matrix" values="0 0 0 0 0.162483 0 0 0 0 0.795833 0 0 0 0 0.757448 0 0 0 1 0"/>
<feBlend mode="normal" in2="effect2_dropShadow" result="effect3_dropShadow"/>
<feBlend mode="normal" in="SourceGraphic" in2="effect3_dropShadow" result="shape"/>
</filter>
<filter id="filter14_ddd" x="508.144" y="35.6786" width="26.332" height="26.3319" filterUnits="userSpaceOnUse" color-interpolation-filters="sRGB">
<feFlood flood-opacity="0" result="BackgroundImageFix"/>
<feColorMatrix in="SourceAlpha" type="matrix" values="0 0 0 0 0 0 0 0 0 0 0 0 0 0 0 0 0 0 127 0" result="hardAlpha"/>
<feOffset/>
<feGaussianBlur stdDeviation="5"/>
<feColorMatrix type="matrix" values="0 0 0 0 0.162483 0 0 0 0 0.795833 0 0 0 0 0.757448 0 0 0 1 0"/>
<feBlend mode="normal" in2="BackgroundImageFix" result="effect1_dropShadow"/>
<feColorMatrix in="SourceAlpha" type="matrix" values="0 0 0 0 0 0 0 0 0 0 0 0 0 0 0 0 0 0 127 0" result="hardAlpha"/>
<feOffset/>
<feGaussianBlur stdDeviation="5"/>
<feColorMatrix type="matrix" values="0 0 0 0 0.162483 0 0 0 0 0.795833 0 0 0 0 0.757448 0 0 0 1 0"/>
<feBlend mode="normal" in2="effect1_dropShadow" result="effect2_dropShadow"/>
<feColorMatrix in="SourceAlpha" type="matrix" values="0 0 0 0 0 0 0 0 0 0 0 0 0 0 0 0 0 0 127 0" result="hardAlpha"/>
<feOffset/>
<feGaussianBlur stdDeviation="5"/>
<feColorMatrix type="matrix" values="0 0 0 0 0.162483 0 0 0 0 0.795833 0 0 0 0 0.757448 0 0 0 1 0"/>
<feBlend mode="normal" in2="effect2_dropShadow" result="effect3_dropShadow"/>
<feBlend mode="normal" in="SourceGraphic" in2="effect3_dropShadow" result="shape"/>
</filter>
<filter id="filter15_ddd" x="402.766" y="85.8926" width="28.9043" height="28.9049" filterUnits="userSpaceOnUse" color-interpolation-filters="sRGB">
<feFlood flood-opacity="0" result="BackgroundImageFix"/>
<feColorMatrix in="SourceAlpha" type="matrix" values="0 0 0 0 0 0 0 0 0 0 0 0 0 0 0 0 0 0 127 0" result="hardAlpha"/>
<feOffset/>
<feGaussianBlur stdDeviation="5"/>
<feColorMatrix type="matrix" values="0 0 0 0 0.162483 0 0 0 0 0.795833 0 0 0 0 0.757448 0 0 0 1 0"/>
<feBlend mode="normal" in2="BackgroundImageFix" result="effect1_dropShadow"/>
<feColorMatrix in="SourceAlpha" type="matrix" values="0 0 0 0 0 0 0 0 0 0 0 0 0 0 0 0 0 0 127 0" result="hardAlpha"/>
<feOffset/>
<feGaussianBlur stdDeviation="5"/>
<feColorMatrix type="matrix" values="0 0 0 0 0.162483 0 0 0 0 0.795833 0 0 0 0 0.757448 0 0 0 1 0"/>
<feBlend mode="normal" in2="effect1_dropShadow" result="effect2_dropShadow"/>
<feColorMatrix in="SourceAlpha" type="matrix" values="0 0 0 0 0 0 0 0 0 0 0 0 0 0 0 0 0 0 127 0" result="hardAlpha"/>
<feOffset/>
<feGaussianBlur stdDeviation="5"/>
<feColorMatrix type="matrix" values="0 0 0 0 0.162483 0 0 0 0 0.795833 0 0 0 0 0.757448 0 0 0 1 0"/>
<feBlend mode="normal" in2="effect2_dropShadow" result="effect3_dropShadow"/>
<feBlend mode="normal" in="SourceGraphic" in2="effect3_dropShadow" result="shape"/>
</filter>
<linearGradient id="paint0_linear" x1="422.196" y1="91.3467" x2="17.9694" y2="436.782" gradientUnits="userSpaceOnUse">
<stop stop-color="white"/>
<stop offset="1" stop-color="white" stop-opacity="0.01"/>
</linearGradient>
</defs>
</svg>
