<svg id="Layer_1" data-name="Layer 1" xmlns="http://www.w3.org/2000/svg" xmlns:xlink="http://www.w3.org/1999/xlink" viewBox="0 0 1285.09 1000.26"><defs><style>.cls-1,.cls-2,.cls-3{fill-rule:evenodd;isolation:isolate;opacity:0.06;}.cls-1{fill:url(#linear-gradient);}.cls-2{fill:url(#linear-gradient-2);}.cls-3{fill:url(#linear-gradient-3);}.cls-4{fill:none;stroke:#29cbc1;}.cls-5{fill:#29cbc1;}</style><linearGradient id="linear-gradient" x1="687.56" y1="1173.53" x2="-33.13" y2="557.66" gradientTransform="matrix(1, 0, 0, -1, 285, 1291.5)" gradientUnits="userSpaceOnUse"><stop offset="0" stop-color="#fff"/><stop offset="1" stop-color="#fff" stop-opacity="0.01"/></linearGradient><linearGradient id="linear-gradient-2" x1="411.22" y1="803.05" x2="-191.34" y2="288.13" xlink:href="#linear-gradient"/><linearGradient id="linear-gradient-3" x1="1017.41" y1="944.18" x2="414.84" y2="429.25" xlink:href="#linear-gradient"/></defs><path class="cls-1" d="M235.66,717.53c-53.14-62.86-43.5-154.38,21.57-204.82L753.64,127.94c42.12-32.65,99.48-41.29,150.58-22.68,51.59,18.79,88.91,62.46,97.75,114.38,8.75,51.44-11.78,103.17-53.9,135.82L451.67,740.23C386.1,791.05,289.2,780.87,235.66,717.53Z" transform="translate(-51.41 -35.5)"/><path class="cls-2" d="M80.1,989.74c-44.43-52.56-36.37-129.09,18-171.26l415-321.7c35.22-27.3,83.18-34.52,125.91-19,43.13,15.71,74.33,52.22,81.72,95.63,7.32,43-9.85,86.26-45.06,113.56l-415,321.7C205.88,1051.2,124.87,1042.69,80.1,989.74Z" transform="translate(-51.41 -35.5)"/><path class="cls-3" d="M686.29,848.61c-44.43-52.55-36.37-129.08,18-171.25l415-321.71c35.22-27.29,83.17-34.52,125.9-19,43.14,15.71,74.34,52.22,81.73,95.64,7.32,43-9.85,86.26-45.07,113.56l-415,321.7C812.07,910.08,731.05,901.57,686.29,848.61Z" transform="translate(-51.41 -35.5)"/><path class="cls-4" d="M846.68,481c122.87,0,222.48-99.61,222.48-222.49S969.55,36,846.68,36,624.19,135.61,624.19,258.48,723.8,481,846.68,481Z" transform="translate(-51.41 -35.5)"/><path class="cls-4" d="M1197.93,591.87A138.07,138.07,0,1,0,1059.85,453.8,138.07,138.07,0,0,0,1197.93,591.87Z" transform="translate(-51.41 -35.5)"/><path class="cls-4" d="M611.61,671.82a95.43,95.43,0,1,0-95.43-95.42A95.43,95.43,0,0,0,611.61,671.82Z" transform="translate(-51.41 -35.5)"/><path class="cls-5" d="M846.55,151.78l76.34,23.16a4.36,4.36,0,0,1,1.54,1,4.47,4.47,0,0,1,1,1.54,5.92,5.92,0,0,1,.36,3.62,5.61,5.61,0,0,1-2.16,2.89,5.37,5.37,0,0,1-3.25.73l-73.8-22.08-73.43,22.08a3.41,3.41,0,0,1-3.26-.73,4.48,4.48,0,0,1-1.38-1.22,4.54,4.54,0,0,1-.77-1.67,4.15,4.15,0,0,1-.24-1.85,4.47,4.47,0,0,1,.59-1.77,5.7,5.7,0,0,1,2.53-2.54Z" transform="translate(-51.41 -35.5)"/><path class="cls-5" d="M956.87,188.33a4.42,4.42,0,0,0-1.44-2.88,7.3,7.3,0,0,0-2.9-1.46,6.7,6.7,0,0,0-2.88.37,3.15,3.15,0,0,0-1.36.81,3.34,3.34,0,0,0-.82,1.36L903.36,273H790.12L746,186.89a6.1,6.1,0,0,0-2.17-2.17A6.62,6.62,0,0,0,741,184a5.08,5.08,0,0,0-4.34,4.34,219.39,219.39,0,0,0,4.34,84c10.84,43.09,38.35,93.39,103.49,125.26l2.17,1.08,2.17-1.08c65.12-31.86,93-82.17,103.82-125.26A219.18,219.18,0,0,0,956.87,188.33ZM750.33,270.15a214.62,214.62,0,0,1-5.78-64.43l38.31,74.93,52.08,101C782.54,351.23,759.75,307.8,750.33,270.15Zm96.21,112.58-51.35-99.55H897.92Zm96.22-112.58c-9.4,38-32.54,81.5-85,111.49l52.46-101,38.34-74.93A205.28,205.28,0,0,1,942.76,270.15Z" transform="translate(-51.41 -35.5)"/><path class="cls-5" d="M1197.85,387.58,1245.23,402a2.74,2.74,0,0,1,1,.62,2.88,2.88,0,0,1,.62,1,3.69,3.69,0,0,1,.22,2.25,3.48,3.48,0,0,1-1.34,1.79,3.32,3.32,0,0,1-2,.45l-45.8-13.7L1152.29,408a2,2,0,0,1-1.07,0,2.16,2.16,0,0,1-1-.49,2.8,2.8,0,0,1-1.34-1.79,2.65,2.65,0,0,1-.14-1.15,2.7,2.7,0,0,1,.36-1.1,3.58,3.58,0,0,1,1.57-1.58Z" transform="translate(-51.41 -35.5)"/><path class="cls-5" d="M1266.32,410.27a2.84,2.84,0,0,0-.9-1.8,4.5,4.5,0,0,0-1.8-.9,4,4,0,0,0-1.79.23,2,2,0,0,0-1.35,1.35l-27.37,53.69h-70.28l-27.38-53.47a3.77,3.77,0,0,0-1.34-1.35,4.31,4.31,0,0,0-1.79-.45,3.15,3.15,0,0,0-1.8.89,3.19,3.19,0,0,0-.9,1.81,136.14,136.14,0,0,0,2.7,52.11c6.72,26.75,23.79,58,64.22,77.74l1.35.67,1.35-.67c40.41-19.77,57.7-51,64.42-77.74A135.73,135.73,0,0,0,1266.32,410.27ZM1138.14,461a133.18,133.18,0,0,1-3.59-40l23.77,46.5,32.33,62.67C1158.12,511.36,1144,484.4,1138.14,461Zm59.71,69.87L1166,469.13h63.75ZM1257.56,461c-5.84,23.59-20.2,50.58-52.75,69.19l32.55-62.67,23.8-46.5A127.56,127.56,0,0,1,1257.56,461Z" transform="translate(-51.41 -35.5)"/><path class="cls-5" d="M611.55,530.63l32.75,9.93a1.93,1.93,0,0,1,.66.43,1.86,1.86,0,0,1,.42.66,2.51,2.51,0,0,1,.16,1.55,2.41,2.41,0,0,1-.93,1.24,2.35,2.35,0,0,1-1.39.32l-31.66-9.47-31.49,9.47a1.43,1.43,0,0,1-.74,0,1.39,1.39,0,0,1-.66-.34,2,2,0,0,1-.59-.52,1.89,1.89,0,0,1-.33-.72,1.63,1.63,0,0,1-.1-.79,1.71,1.71,0,0,1,.25-.76,2.42,2.42,0,0,1,1.08-1.09Z" transform="translate(-51.41 -35.5)"/><path class="cls-5" d="M658.88,546.31a2,2,0,0,0-.62-1.24,3.28,3.28,0,0,0-1.25-.63,3.08,3.08,0,0,0-1.24.16,1.44,1.44,0,0,0-.58.35,1.47,1.47,0,0,0-.35.59l-18.92,37.1H587.35l-18.92-36.95a2.59,2.59,0,0,0-.93-.93,2.85,2.85,0,0,0-1.24-.32,2.23,2.23,0,0,0-1.24.62,2.16,2.16,0,0,0-.62,1.25,94,94,0,0,0,1.86,36c4.65,18.48,16.45,40,44.39,53.72l.93.47.93-.47c27.93-13.66,39.88-35.24,44.53-53.72A94,94,0,0,0,658.88,546.31ZM570.29,581.4a92.11,92.11,0,0,1-2.49-27.63l16.44,32.13,22.34,43.32C584.1,616.18,574.32,597.55,570.29,581.4Zm41.26,48.29-22-42.7h44.06Zm41.27-48.29c-4,16.3-14,35-36.46,47.82l22.5-43.32,16.45-32.13A87.76,87.76,0,0,1,652.82,581.4Z" transform="translate(-51.41 -35.5)"/></svg>