<svg id="Layer_1" data-name="Layer 1" xmlns="http://www.w3.org/2000/svg" viewBox="0 0 2464.44 964.22"><defs><style>.cls-1,.cls-2{fill:#29cbc1;}.cls-1{isolation:isolate;opacity:0.05;}</style></defs><path class="cls-1" d="M210.14,17.78H2288.46c103.3,0,187,82,187,183.11v598c0,101.14-83.74,183.12-187,183.12H210.14c-103.3,0-187-82-187-183.12v-598C23.1,99.76,106.84,17.78,210.14,17.78Z" transform="translate(-17.56 -17.78)"/><path class="cls-2" d="M2470.44,763.82a6.59,6.59,0,0,0,9.14.94,6.28,6.28,0,0,0,1-9,6.61,6.61,0,0,0-9.15-.94A6.28,6.28,0,0,0,2470.44,763.82Z" transform="translate(-17.56 -17.78)"/><path class="cls-2" d="M19,631a6.61,6.61,0,0,0,9.16,1,6.28,6.28,0,0,0,1-9,6.6,6.6,0,0,0-9.15-1A6.29,6.29,0,0,0,19,631Z" transform="translate(-17.56 -17.78)"/></svg>